<svg xmlns="http://www.w3.org/2000/svg" width="1200" height="720" viewBox="0 0 1200 720">
  <rect width="1200" height="720" fill="#f6f8fb"/>
  <rect x="40" y="32" width="1120" height="72" rx="16" fill="#111827"/>
  <text x="70" y="78" font-family="Arial" font-size="28" font-weight="700" fill="#ffffff">Dashboard Executivo de Vendas e Margem</text>
  <text x="870" y="78" font-family="Arial" font-size="18" fill="#d1d5db">Retail BI Portfolio</text>

  <g font-family="Arial">
    <rect x="40" y="130" width="208" height="105" rx="14" fill="#ffffff" stroke="#dbe3ef"/>
    <text x="62" y="164" font-size="16" fill="#6b7280">Receita Liquida</text>
    <text x="62" y="208" font-size="30" font-weight="700" fill="#111827">R$ 2.981</text>

    <rect x="268" y="130" width="208" height="105" rx="14" fill="#ffffff" stroke="#dbe3ef"/>
    <text x="290" y="164" font-size="16" fill="#6b7280">Margem Bruta</text>
    <text x="290" y="208" font-size="30" font-weight="700" fill="#111827">R$ 1.083</text>

    <rect x="496" y="130" width="208" height="105" rx="14" fill="#ffffff" stroke="#dbe3ef"/>
    <text x="518" y="164" font-size="16" fill="#6b7280">Margem %</text>
    <text x="518" y="208" font-size="30" font-weight="700" fill="#111827">36,3%</text>

    <rect x="724" y="130" width="208" height="105" rx="14" fill="#ffffff" stroke="#dbe3ef"/>
    <text x="746" y="164" font-size="16" fill="#6b7280">Pedidos</text>
    <text x="746" y="208" font-size="30" font-weight="700" fill="#111827">11</text>

    <rect x="952" y="130" width="208" height="105" rx="14" fill="#ffffff" stroke="#dbe3ef"/>
    <text x="974" y="164" font-size="16" fill="#6b7280">Ticket Medio</text>
    <text x="974" y="208" font-size="30" font-weight="700" fill="#111827">R$ 271</text>
  </g>

  <rect x="40" y="265" width="530" height="260" rx="16" fill="#ffffff" stroke="#dbe3ef"/>
  <text x="70" y="305" font-family="Arial" font-size="20" font-weight="700" fill="#111827">Receita por mes</text>
  <rect x="95" y="450" width="60" height="40" fill="#9ca3af"/>
  <rect x="180" y="390" width="60" height="100" fill="#6b7280"/>
  <rect x="265" y="340" width="60" height="150" fill="#4b5563"/>
  <rect x="350" y="415" width="60" height="75" fill="#6b7280"/>
  <line x1="80" y1="490" x2="520" y2="490" stroke="#d1d5db"/>
  <text x="98" y="515" font-family="Arial" font-size="13" fill="#6b7280">Jan</text>
  <text x="183" y="515" font-family="Arial" font-size="13" fill="#6b7280">Fev</text>
  <text x="268" y="515" font-family="Arial" font-size="13" fill="#6b7280">Mar</text>
  <text x="353" y="515" font-family="Arial" font-size="13" fill="#6b7280">Abr</text>

  <rect x="610" y="265" width="550" height="260" rx="16" fill="#ffffff" stroke="#dbe3ef"/>
  <text x="640" y="305" font-family="Arial" font-size="20" font-weight="700" fill="#111827">Receita e margem por categoria</text>
  <circle cx="760" cy="405" r="82" fill="#374151"/>
  <path d="M760 405 L760 323 A82 82 0 0 1 836 374 Z" fill="#9ca3af"/>
  <path d="M760 405 L836 374 A82 82 0 0 1 822 456 Z" fill="#6b7280"/>
  <path d="M760 405 L822 456 A82 82 0 0 1 700 475 Z" fill="#4b5563"/>
  <text x="890" y="370" font-family="Arial" font-size="15" fill="#374151">Eletronicos</text>
  <text x="890" y="400" font-family="Arial" font-size="15" fill="#374151">Casa</text>
  <text x="890" y="430" font-family="Arial" font-size="15" fill="#374151">Moda</text>
  <text x="890" y="460" font-family="Arial" font-size="15" fill="#374151">Esporte</text>

  <rect x="40" y="555" width="1120" height="115" rx="16" fill="#ffffff" stroke="#dbe3ef"/>
  <text x="70" y="595" font-family="Arial" font-size="20" font-weight="700" fill="#111827">Resumo analitico</text>
  <text x="70" y="630" font-family="Arial" font-size="16" fill="#374151">O projeto combina SQL, modelagem, Power BI e validacoes para transformar dados de vendas em decisoes de negocio.</text>
</svg>
